<svg xmlns="http://www.w3.org/2000/svg" version="1.1" xmlns:xlink="http://www.w3.org/1999/xlink" xmlns:svgjs="http://svgjs.com/svgjs" width="370" height="370"><svg width="370" height="370" viewBox="0 0 370 370" xmlns="http://www.w3.org/2000/svg">
    <path id="SvgjsPath1000" fill="#0a0908" stroke="none" d="M 303.806335 102.746399 C 303.211945 101.016327 302.549622 99.310394 301.820831 97.632477 C 300.688934 90.928711 295.421143 78.312408 295.351501 78.169556 L 294.259857 75.755463 C 291.875061 70.52063 289.164276 64.593445 288.67334 59.501495 C 288.292389 55.570831 293.377014 35.225067 295.820374 25.444153 C 300.333588 7.398865 300.809753 5.519592 295.307556 3.530457 C 294.490173 3.248627 293.623138 3.140137 292.761597 3.211761 L 292.728607 3.204407 C 287.482819 2.07251 281.885315 5.717438 272.445099 12.256378 C 270.792938 13.399292 268.62796 14.897552 266.587494 16.21637 C 267.298187 12.882751 267.195618 8.552826 262.942596 5.149628 C 257.54657 0.830597 249.897675 5.241211 238.325409 11.930359 C 235.08342 13.805908 230.244247 16.608337 227.013214 18.051666 C 224.456268 13.846222 219.745331 9.285461 210.854538 11.087769 C 205.824875 12.10614 199.985626 16.516754 191.659042 23.139923 C 189.252457 25.079193 186.802277 26.963806 184.310532 28.792358 C 184.27388 27.275726 184.098022 25.619934 183.486252 23.9935 C 180.559311 16.274994 175.778748 13.82428 172.28035 13.128235 C 160.971848 10.864288 148.79512 23.73703 139.039856 34.085754 C 138.428085 34.737823 137.790665 35.408203 137.16423 36.067596 C 134.339859 31.39328 130.797501 26.572388 125.591972 25.660248 C 120.573296 24.748108 99.879486 29.715515 80.70594 46.566528 C 62.444572 62.611664 41.201286 93.584595 43.703297 150.046524 C 44.395634 165.604431 52.799183 303.409302 134.361877 351.918243 C 152.388809 362.64798 172.44519 368 194.402847 368 C 220.69043 368 249.699814 360.318115 281.203979 344.969025 C 365.814484 303.735291 304.476715 104.728241 303.806335 102.746399 M 275.932495 334.147766 C 221.990891 360.435333 176.427185 362.94104 140.505157 341.569519 C 64.371452 296.287903 56.381863 164.395554 55.722485 149.508026 C 54.044701 111.655487 63.213856 81.891418 82.980865 61.047424 C 99.934456 43.170685 119.181267 38.148315 123.434334 37.606171 C 124.873978 38.796753 127.167206 42.745728 128.31012 44.720276 C 129.313889 46.44928 130.182083 47.947601 131.083221 49.152771 C 133.012283 51.734283 136.634567 52.333954 139.292618 50.511841 C 141.505219 48.998932 144.142792 46.203857 147.78775 42.331818 C 152.527985 37.305786 165.100327 23.956848 169.928558 24.916595 C 170.624542 25.059479 171.511032 26.33429 172.214432 28.180603 C 172.313309 28.579895 172.291351 29.788788 172.272995 30.58371 C 172.210724 33.580261 172.093491 39.163055 177.064545 42.089996 C 182.852539 45.500519 189.332855 40.342621 199.135742 32.550873 C 203.451126 29.125702 210.664047 23.39267 213.242996 22.872498 C 215.440948 22.421906 216.09668 22.286377 218.104187 27.19516 C 218.847839 29.008453 220.423019 30.345581 222.335236 30.781494 C 227.379562 31.939117 233.676743 28.502991 244.344162 22.337708 C 246.959717 20.821075 250.663284 18.685394 253.630554 17.194427 C 252.670792 19.996857 251.813553 23.879913 254.169052 27.620087 C 255.330307 29.44809 257.143616 30.697235 259.290283 31.133209 C 264.448151 32.191895 269.968719 28.587189 279.27713 22.143555 C 281.246094 20.765991 283.237976 19.421356 285.251831 18.110291 C 284.889191 19.568237 284.515533 21.073853 284.145538 22.528137 C 279.441895 41.350037 276.152313 55.105591 276.694458 60.666412 C 276.976532 63.56778 277.676239 66.447113 278.59201 69.245819 C 272.456085 65.575226 265.466522 63.662994 257.795685 64.769287 C 253.473053 65.392059 249.278549 67.21637 245.417496 70.088348 C 239.7724 65.091675 233.383652 61.611572 226.522385 60.999817 C 209.693283 59.494202 187.816238 59.49057 171.749207 66.44342 C 164.470261 60.655487 153.648941 59.864197 141.681076 64.333374 C 120.243607 72.341278 105.927544 86.162811 99.128532 105.420593 C 81.962486 154.046814 118.232513 223.930984 134.834396 252.031921 C 134.233643 257.285034 134.380173 262.567474 135.446167 267.67041 C 138.343811 281.52121 150.623123 304.991791 200.333664 306.610962 C 261.59082 308.607452 281.77179 282.122009 284.068634 266.168488 C 285.310455 257.541473 281.266266 252.482498 276.694458 251.295593 C 272.712524 250.26622 260.28302 250.09407 230.738785 249.932877 C 203.967606 249.782684 160.902237 249.540894 147.882965 247.101151 C 151.546219 232.623917 161.700851 219.637634 170.419388 215.483505 C 176.8741 212.391678 180.028168 214.992615 181.834152 217.216232 C 184.200607 220.117523 186.87114 220.637711 188.658829 220.656021 C 192.604156 220.579102 195.01091 217.714447 196.520172 215.739929 C 198.000122 216.377319 199.864731 217.798691 201.809967 219.278641 C 206.54657 222.883301 213.04155 227.832352 222.500076 227.945938 C 227.614029 227.901978 231.845093 226.542908 234.827011 223.593979 C 239.706436 218.773102 240.10939 211.519852 240.10939 203.889252 C 240.10939 195.899673 238.699066 188.547485 237.336334 181.444412 L 236.614639 177.630951 C 233.812271 162.512634 229.84494 146.324661 224.829926 129.513916 C 223.767197 126.007462 222.666946 122.512497 221.529312 119.029648 C 219.924835 114.062256 218.265381 108.926361 216.961212 104.105499 C 216.115036 100.991699 214.235779 92.925201 212.865692 87.034637 C 212.166 84.012451 211.594543 81.576385 211.371094 80.667908 C 210.563858 77.446991 207.298401 75.490387 204.077484 76.297607 C 200.856644 77.104889 198.899963 80.3703 199.707245 83.591187 C 199.927002 84.47403 200.476501 86.833191 201.157898 89.760132 C 202.553574 95.742249 204.454849 103.933319 205.359634 107.25589 C 206.740723 112.347839 208.440491 117.622925 210.085281 122.722229 C 211.198883 126.162018 212.305191 129.59816 213.305267 132.957382 C 218.206757 149.357834 222.078812 165.12088 224.793304 179.817917 L 225.529617 183.708313 C 226.841064 190.565933 228.09021 197.042603 228.09021 203.885574 C 228.09021 207.186188 228.09021 213.3405 226.375839 215.036575 C 225.610184 215.787537 223.892105 215.912094 222.642975 215.912094 C 217.16272 215.846146 213.242996 212.864258 209.088867 209.706528 C 204.920074 206.52681 200.216431 202.881851 194.051147 203.405701 C 191.406281 203.607178 189.618591 205.167725 188.329132 206.680664 C 182.086929 201.299316 173.877533 200.504379 165.246872 204.618225 C 154.846817 209.578308 144.813187 221.421646 139.168091 235.345734 C 122.23275 204.501022 96.747429 148.273514 110.466331 109.424561 C 116.104126 93.463684 127.691048 82.396973 145.886475 75.601624 C 148.205353 74.733368 154.725937 72.623352 160.158569 73.927521 C 151.267853 82.902496 138.570923 104.845459 140.248734 119.538834 C 140.985031 126.01915 144.450485 130.924271 150.003998 133.349365 C 159.993729 137.719635 175.141373 135.184631 180.907349 124.590485 C 184.182297 118.564423 185.218979 108.981293 183.991791 96.093933 C 183.768341 93.742096 182.695038 84.518005 179.064697 76.469788 C 190.065506 72.491455 206.048325 71.253265 225.452682 72.98233 C 229.060974 73.304749 233.042969 75.323181 237.02861 78.759338 C 236.662308 79.274638 236.299642 79.799713 235.940613 80.334564 C 228.522476 91.544159 225.394073 106.167908 228.174484 116.718109 C 229.335754 121.128693 232.405594 124.579483 237.057907 126.704193 C 245.395554 130.517654 257.462341 129.316101 264.30896 125.945877 C 267.382446 124.440292 270.668396 120.630478 268.884369 111.047394 C 267.279877 102.402069 261.741028 89.53299 253.626892 78.997437 C 255.550064 77.74826 257.531921 76.95697 259.510101 76.674957 C 272.800385 74.722412 284.735352 89.012817 290.515991 101.841583 C 290.540385 101.902639 290.56602 101.963694 290.592896 102.02475 C 291.28894 103.585297 291.897064 105.127533 292.402618 106.614807 C 302.923492 137.595078 342.329254 301.797424 275.932495 334.147766 M 245.695923 88.525604 C 253.916275 100.152832 257.290161 111.670135 257.414673 115.79863 C 253.029785 117.274933 246.106186 117.608307 242.065582 115.758347 C 240.14241 114.87915 239.893295 113.952362 239.820023 113.648285 C 237.995728 106.743042 240.307251 96.134216 245.32222 87.998108 Z M 170.35347 118.839142 C 167.965012 123.231415 159.682343 124.443954 154.828522 122.326569 C 153.656296 121.813736 152.527985 120.956512 152.209305 118.176117 C 151.062683 108.113098 161.847336 89.104401 168.573135 82.470245 C 170.346115 86.836823 171.573349 92.419678 172.031219 97.233215 C 172.972687 107.10202 172.342606 115.179535 170.35347 118.839142 M 146.501938 258.937195 C 157.869049 260.940979 181.167419 261.677307 230.680176 261.952057 C 247.531235 262.04364 266.408051 262.153564 272.276611 262.728638 C 272.371826 264.443054 271.767365 268.040375 268.796509 272.469299 C 263.979279 279.619995 247.703369 296.079071 200.736633 294.584442 C 169.532898 293.573364 151.033386 283.415161 147.223587 265.201385 C 146.797852 263.138794 146.556366 261.042511 146.501938 258.937195"></path>
</svg><style>@media (prefers-color-scheme: light) { :root { filter: none; } }
@media (prefers-color-scheme: dark) { :root { filter: contrast(0.8333333333333334) brightness(1.7); } }
</style></svg>