<?xml version="1.0" standalone="no"?>
<!DOCTYPE svg PUBLIC "-//W3C//DTD SVG 20010904//EN"
 "http://www.w3.org/TR/2001/REC-SVG-20010904/DTD/svg10.dtd">
<svg version="1.0" xmlns="http://www.w3.org/2000/svg"
 width="2000.000000pt" height="2000.000000pt" viewBox="0 0 2000.000000 2000.000000"
 preserveAspectRatio="xMidYMid meet">
<metadata>
Created by potrace 1.14, written by Peter Selinger 2001-2017
</metadata>
<g transform="translate(0.000000,2000.000000) scale(0.100000,-0.100000)"
fill="#000000" stroke="none">
<path d="M3045 15044 c-38 -8 -115 -37 -170 -63 -135 -66 -221 -144 -272 -248
-36 -73 -37 -80 -41 -202 -6 -219 205 -6631 223 -6745 21 -136 64 -224 147
-301 34 -32 87 -70 118 -84 48 -23 68 -26 155 -26 86 0 106 4 145 24 146 76
243 217 284 412 22 104 221 6717 205 6806 -24 131 -98 234 -230 319 -170 110
-370 148 -564 108z"/>
<path d="M10190 11854 c-496 -30 -950 -169 -1340 -409 -307 -190 -545 -444
-697 -743 l-52 -103 -3 374 -3 373 -37 76 c-46 91 -128 172 -239 235 -104 59
-178 76 -308 71 -96 -4 -113 -7 -181 -40 -187 -88 -299 -217 -330 -378 -14
-74 -14 -5897 0 -5971 25 -133 106 -240 238 -318 111 -66 180 -85 307 -85 125
0 167 10 281 65 139 66 226 164 260 293 11 42 14 351 14 1801 0 1960 2 2007
71 2335 134 633 489 1125 994 1374 142 70 233 103 395 140 204 47 343 61 635
61 247 0 279 -2 375 -23 225 -51 442 -159 627 -314 186 -156 351 -443 427
-746 65 -253 60 -73 66 -2437 6 -2407 -2 -2188 78 -2311 90 -139 297 -244 482
-244 137 0 296 61 395 152 58 53 92 102 122 178 17 42 18 155 23 1985 6 1923
6 1941 27 2072 50 303 122 519 255 763 336 616 923 930 1733 930 337 0 555
-45 800 -164 214 -105 379 -248 509 -444 155 -232 246 -508 275 -832 7 -76 11
-810 11 -2153 0 -2273 -5 -2120 69 -2234 65 -101 169 -178 301 -224 52 -18 87
-22 180 -23 100 0 125 4 193 27 175 61 285 163 334 307 17 53 18 144 21 2045
3 2015 0 2210 -34 2472 -56 427 -187 798 -394 1117 -359 551 -887 854 -1635
938 -164 18 -571 15 -740 -5 -849 -103 -1502 -515 -2001 -1263 l-84 -125 -17
43 c-83 212 -286 544 -417 685 -344 368 -800 584 -1388 658 -122 15 -473 26
-598 19z"/>
<path d="M3110 6164 c-179 -33 -287 -75 -375 -146 -55 -45 -147 -176 -190
-271 -14 -30 -29 -91 -36 -144 -25 -194 14 -289 189 -461 164 -160 242 -194
487 -208 265 -16 490 58 640 210 104 106 139 208 140 411 l0 130 -43 90 c-54
112 -140 243 -188 285 -81 71 -205 101 -434 105 -91 2 -176 2 -190 -1z"/>
</g>
</svg>
